# xmcd
#
# Track frame offsets:
#	150
#	23040
#	44839
#	64520
#	81885
#	100322
#	118985
#	125030
#	146915
#	169832
#	187217
#	208680
#
# Disc length: 3026 seconds
#
# Revision: 0
# Processed by: cddbd v1.5.2PL0 Copyright (c) Steve Scherf et al.
# Submitted via: EasyCDDAExtractor 4.5.0.2
#
DISCID=bd0bd00c
DTITLE=조규찬 - The 4th wind
DYEAR=1997
DGENRE=R&B
TTITLE0=비둘기야 비둘기야
TTITLE1=믿어지지 않는 얘기
TTITLE2=투명인간
TTITLE3=모조미학
TTITLE4=서울하늘
TTITLE5=권태기에 즈음하여
TTITLE6=권태기에 즈음하여(English ver.)
TTITLE7=우리한땐
TTITLE8=지적(知的)허영
TTITLE9=행복한 너이기를
TTITLE10=비가 좋아요
TTITLE11=그대 이젠
EXTD=
EXTT0=
EXTT1=
EXTT2=
EXTT3=
EXTT4=
EXTT5=
EXTT6=
EXTT7=
EXTT8=
EXTT9=
EXTT10=
EXTT11=
PLAYORDER=
